# File created by Blade
# Date/Time:  Wed Jan 21 19:08:52 2015
# Frame Rate: 120.000 fps
#------------------------------------------------------
:FULLY-SPECIFIED
:DEGREES
2759
root -7.012991 31.957570 -6.054043 55.589423 17.723272 -2.728803
RightUpLeg -58.036930 2.170802 9.445819
RightLeg -6.318898 -0.000000 0.000000
RightFoot -5.549016 -12.194902 14.318168
RightToeBase 21.887533 -0.000000 -0.000000
LeftUpLeg -46.809244 -12.529389 -1.770415
LeftLeg -2.703710 -0.000000 0.000000
LeftFoot -7.350526 -11.634292 -2.743408
LeftToeBase 14.167721 -0.000000 -0.000000
Spine -42.691811 22.117057 32.074051
RightShoulder -11.285336 16.561442 -5.339360
RightArm -7.975459 -10.138799 71.819862
RightForeArm 16.981171 -0.000000 0.563347
RightHand 18.408758 -0.000000 -9.818163
RightHandThumb1 -24.326973 -0.000000 -32.862282
LeftShoulder -19.040350 -15.323493 69.112479
LeftArm 23.840217 -29.617383 6.851398
LeftForeArm 5.888932 -0.000000 4.476604
LeftHand -22.599827 -0.000000 19.184897
LeftHandThumb1 -26.253704 0.000000 33.147579
Head -18.524331 -16.946562 53.012419
2760
root -7.007035 31.955845 -6.048961 55.610405 17.593242 -2.740859
RightUpLeg -58.067862 2.207232 9.414685
RightLeg -6.296119 -0.000000 0.000000
RightFoot -5.591527 -12.139340 14.371000
RightToeBase 21.907583 -0.000000 -0.000000
LeftUpLeg -46.838150 -12.538751 -1.772332
LeftLeg -2.692033 -0.000000 0.000000
LeftFoot -7.376722 -11.536656 -2.673506
LeftToeBase 14.090833 -0.000000 -0.000000
Spine -42.683275 22.155901 32.081806
RightShoulder -11.260305 16.593531 -5.336838
RightArm -7.951398 -10.023092 71.775377
RightForeArm 16.826410 0.000000 0.639224
RightHand 18.264221 -0.000000 -9.722157
RightHandThumb1 -24.326973 -0.000000 -32.862282
LeftShoulder -19.084704 -15.426884 69.151699
LeftArm 23.882002 -29.751202 6.871783
LeftForeArm 5.802785 -0.000000 4.616149
LeftHand -22.698839 -0.000000 19.390012
LeftHandThumb1 -26.253704 0.000000 33.147579
Head -18.558333 -16.864047 53.095639
2761
root -7.001591 31.953268 -6.043361 55.628862 17.474635 -2.762458
RightUpLeg -58.084358 2.252583 9.385933
RightLeg -6.310788 -0.000000 0.000000
RightFoot -5.562466 -12.085803 14.379328
RightToeBase 22.102644 -0.000000 -0.000000
LeftUpLeg -46.854098 -12.551212 -1.757592
LeftLeg -2.706199 -0.000000 0.000000
LeftFoot -7.398057 -11.438913 -2.687552
LeftToeBase 14.102301 -0.000000 -0.000000
Spine -42.677319 22.193314 32.104257
RightShoulder -11.251620 16.663821 -5.336958
RightArm -7.928719 -9.953393 71.725780
RightForeArm 16.696916 -0.000000 0.653913
RightHand 18.380276 0.000000 -9.699991
RightHandThumb1 -24.326973 -0.000000 -32.862282
LeftShoulder -19.065373 -15.307674 69.086201
LeftArm 23.827890 -30.101695 6.974633
LeftForeArm 5.699233 -0.000000 4.785585
LeftHand -22.771554 -0.000000 19.535274
LeftHandThumb1 -26.253704 0.000000 33.147579
Head -18.610673 -16.822488 53.180308
2762
root -6.995627 31.950775 -6.039715 55.651681 17.357427 -2.773406
RightUpLeg -58.120143 2.282963 9.361323
RightLeg -6.300096 -0.000000 0.000000
RightFoot -5.572819 -12.019100 14.460904
RightToeBase 22.301480 -0.000000 -0.000000
LeftUpLeg -46.874959 -12.543683 -1.782186
LeftLeg -2.704081 -0.000000 0.000000
LeftFoot -7.436128 -11.370238 -2.646660
LeftToeBase 14.099323 -0.000000 -0.000000
Spine -42.674235 22.229007 32.115212
RightShoulder -11.230097 16.732054 -5.327513
RightArm -7.930812 -9.820814 71.655644
RightForeArm 16.500985 0.000000 0.737934
RightHand 18.316621 -0.000000 -9.685280
RightHandThumb1 -24.326973 -0.000000 -32.862282
LeftShoulder -19.059868 -15.184241 69.030430
LeftArm 23.815302 -30.431206 7.044532
LeftForeArm 5.550284 -0.000000 4.934558
LeftHand -22.974862 -0.000000 19.839675
LeftHandThumb1 -26.253704 0.000000 33.147579
Head -18.644094 -16.762511 53.258449
2763
root -6.991554 31.949038 -6.035398 55.661963 17.260592 -2.788176
RightUpLeg -58.137855 2.319251 9.333343
RightLeg -6.292109 -0.000000 0.000000
RightFoot -5.573552 -11.973291 14.538444
RightToeBase 22.420625 -0.000000 -0.000000
LeftUpLeg -46.880474 -12.511876 -1.817667
LeftLeg -2.698683 -0.000000 0.000000
LeftFoot -7.457634 -11.363473 -2.683598
LeftToeBase 14.107811 -0.000000 -0.000000
Spine -42.682373 22.262120 32.120761
RightShoulder -11.207718 16.769283 -5.287308
RightArm -7.911062 -9.771898 71.578552
RightForeArm 16.488894 -0.000000 0.770252
RightHand 18.349144 -0.000000 -9.710252
RightHandThumb1 -24.326973 -0.000000 -32.862282
LeftShoulder -19.127954 -15.406458 69.157582
LeftArm 23.912020 -30.328000 7.003247
LeftForeArm 5.550289 -0.000000 5.077246
LeftHand -22.898930 -0.000000 19.845197
LeftHandThumb1 -26.253704 0.000000 33.147579
Head -18.674321 -16.718459 53.379058
2764
root -6.986272 31.947165 -6.032093 55.677924 17.175275 -2.797411
RightUpLeg -58.160306 2.346752 9.302604
RightLeg -6.284685 -0.000000 0.000000
RightFoot -5.541358 -11.938975 14.511584
RightToeBase 22.525053 -0.000000 -0.000000
LeftUpLeg -46.883351 -12.471323 -1.872285
LeftLeg -2.705504 -0.000000 0.000000
LeftFoot -7.463118 -11.370680 -2.688084
LeftToeBase 14.103327 -0.000000 -0.000000
Spine -42.697227 22.289117 32.138558
RightShoulder -11.160948 16.768914 -5.255306
RightArm -7.887850 -9.672696 71.506972
RightForeArm 16.422574 -0.000000 0.839500
RightHand 18.340529 -0.000000 -9.747856
RightHandThumb1 -24.326973 -0.000000 -32.862282
LeftShoulder -19.169488 -15.504476 69.217714
LeftArm 24.012996 -30.404227 6.965836
LeftForeArm 5.590633 -0.000000 5.217044
LeftHand -23.049554 0.000000 19.858349
LeftHandThumb1 -26.253704 0.000000 33.147579
Head -18.696437 -16.705432 53.471289
2765
root -6.981709 31.945582 -6.029904 55.693471 17.107461 -2.801576
RightUpLeg -58.183738 2.360691 9.283961
RightLeg -6.270971 -0.000000 0.000000
RightFoot -5.539429 -11.889748 14.509422
RightToeBase 22.625774 -0.000000 -0.000000
LeftUpLeg -46.886845 -12.441170 -1.918833
LeftLeg -2.707234 -0.000000 0.000000
LeftFoot -7.481947 -11.381884 -2.694320
LeftToeBase 14.130478 -0.000000 -0.000000
Spine -42.717718 22.313830 32.156303
RightShoulder -11.131998 16.792183 -5.240471
RightArm -7.876527 -9.606629 71.453068
RightForeArm 16.412163 -0.000000 0.869191
RightHand 18.374767 0.000000 -9.818645
RightHandThumb1 -24.326973 -0.000000 -32.862282
LeftShoulder -19.177401 -15.509603 69.206283
LeftArm 24.084264 -30.596428 6.957584
LeftForeArm 5.743072 -0.000000 5.350382
LeftHand -23.078575 -0.000000 19.862640
LeftHandThumb1 -26.253704 0.000000 33.147579
Head -18.702317 -16.681262 53.567562
2766
root -6.977522 31.944488 -6.028678 55.706234 17.051737 -2.812363
RightUpLeg -58.203331 2.398631 9.227419
RightLeg -6.264860 -0.000000 0.000000
RightFoot -5.550491 -11.884636 14.540465
RightToeBase 22.745983 -0.000000 -0.000000
LeftUpLeg -46.882551 -12.397320 -1.966461
LeftLeg -2.728443 -0.000000 0.000000
LeftFoot -7.465837 -11.411467 -2.701555
LeftToeBase 14.129111 -0.000000 -0.000000
Spine -42.727368 22.338342 32.185188
RightShoulder -11.126020 16.844379 -5.230690
RightArm -7.870322 -9.531911 71.395104
RightForeArm 16.361621 -0.000000 0.888562
RightHand 18.380624 0.000000 -9.910377
RightHandThumb1 -24.326973 -0.000000 -32.862282
LeftShoulder -19.167131 -15.492948 69.175759
LeftArm 24.051060 -30.616211 7.103712
LeftForeArm 5.598144 -0.000000 5.470865
LeftHand -23.031642 -0.000000 20.139551
LeftHandThumb1 -26.253704 0.000000 33.147579
Head -18.744273 -16.622282 53.682137
2767
root -6.973832 31.943340 -6.026983 55.715067 17.008266 -2.807575
RightUpLeg -58.213665 2.397884 9.222093
RightLeg -6.256783 -0.000000 0.000000
RightFoot -5.566806 -11.860381 14.497165
RightToeBase 22.874605 -0.000000 -0.000000
LeftUpLeg -46.872490 -12.362047 -2.024290
LeftLeg -2.734641 -0.000000 0.000000
LeftFoot -7.458340 -11.454878 -2.717174
LeftToeBase 14.137988 -0.000000 -0.000000
Spine -42.746762 22.343770 32.203847
RightShoulder -11.122374 16.851699 -5.201512
RightArm -7.835342 -9.493945 71.326869
RightForeArm 16.314168 -0.000000 0.924610
RightHand 18.198153 -0.000000 -9.819336
RightHandThumb1 -24.326973 -0.000000 -32.862282
LeftShoulder -19.176353 -15.531047 69.170469
LeftArm 24.098826 -30.649479 7.182238
LeftForeArm 5.682630 -0.000000 5.578066
LeftHand -23.090057 -0.000000 20.141052
LeftHandThumb1 -26.253704 0.000000 33.147579
Head -18.771109 -16.594419 53.801230
2768
root -6.970917 31.942774 -6.025987 55.712104 16.982516 -2.806476
RightUpLeg -58.208438 2.409764 9.193978
RightLeg -6.257025 -0.000000 0.000000
RightFoot -5.583585 -11.877857 14.492585
RightToeBase 22.928125 -0.000000 -0.000000
LeftUpLeg -46.857670 -12.340989 -2.058841
LeftLeg -2.740000 -0.000000 0.000000
LeftFoot -7.462231 -11.490526 -2.713958
LeftToeBase 14.145508 -0.000000 -0.000000
Spine -42.769770 22.350792 32.226039
RightShoulder -11.099444 16.879879 -5.179062
RightArm -7.856399 -9.356991 71.255756
RightForeArm 16.222379 -0.000000 0.985270
RightHand 18.122554 -0.000000 -9.864279
RightHandThumb1 -24.326973 -0.000000 -32.862282
LeftShoulder -19.144544 -15.541317 69.162777
LeftArm 24.099652 -30.763158 7.221124
LeftForeArm 5.847785 -0.000000 5.741623
LeftHand -23.197811 -0.000000 20.199812
LeftHandThumb1 -26.253704 0.000000 33.147579
Head -18.791453 -16.631375 53.940563
2769
root -6.967705 31.942030 -6.025632 55.706312 16.982595 -2.800580
RightUpLeg -58.202773 2.406448 9.174719
RightLeg -6.247330 -0.000000 0.000000
RightFoot -5.617555 -11.888037 14.445537
RightToeBase 23.021584 -0.000000 -0.000000
LeftUpLeg -46.844249 -12.328123 -2.087764
LeftLeg -2.737861 -0.000000 0.000000
LeftFoot -7.456064 -11.523704 -2.715298
LeftToeBase 14.141956 -0.000000 -0.000000
Spine -42.800143 22.353134 32.254461
RightShoulder -11.104199 16.902159 -5.174161
RightArm -7.863505 -9.212830 71.191478
RightForeArm 16.094754 -0.000000 1.027934
RightHand 18.108240 -0.000000 -9.929476
RightHandThumb1 -24.326973 -0.000000 -32.862282
LeftShoulder -19.086403 -15.388732 69.060897
LeftArm 24.085834 -30.925986 7.381229
LeftForeArm 5.738693 -0.000000 5.767115
LeftHand -23.012490 -0.000000 20.218468
LeftHandThumb1 -26.253704 0.000000 33.147579
Head -18.825871 -16.635907 54.070719
